# xmcd CD database file
#
# Track frame offsets:
#	150
#	19753
#	37977
#	57270
#	73165
#	93047
#	110951
#	121760
#	139426
#	156091
#	165746
#
# Disc length: 2337 seconds
#
# Revision: 0
# Processed by: cddbd v1.5.1PL0 Copyright (c) Steve Scherf et al.
# Submitted via: CDex 1.51
#
DISCID=94091f0b
DTITLE=Emer Kenny - Parting Glass
DYEAR=2004
DGENRE=New Age
TTITLE0=Parting Glass
TTITLE1=Cast A Spell
TTITLE2=Scarborough Fair
TTITLE3=Sally Garden
TTITLE4=Rescue Me
TTITLE5=Moll Dubh
TTITLE6=Emer's Jig
TTITLE7=She Moved Through the Fair
TTITLE8=Rambling Boysof Pleasure
TTITLE9=An Hini a Garan
TTITLE10=Breton Dance
EXTD=YEAR: 2004
EXTT0=
EXTT1=
EXTT2=
EXTT3=
EXTT4=
EXTT5=
EXTT6=
EXTT7=
EXTT8=
EXTT9=
EXTT10=
PLAYORDER=
